<?xml version="1.0" encoding="utf-8"?>
<!-- Generator: Adobe Illustrator 27.5.0, SVG Export Plug-In . SVG Version: 6.00 Build 0)  -->
<svg version="1.1" xmlns="http://www.w3.org/2000/svg" xmlns:xlink="http://www.w3.org/1999/xlink" x="0px" y="0px"
	 viewBox="0 0 500 500" style="enable-background:new 0 0 500 500;" xml:space="preserve">
<g id="BACKGROUND">
	<rect style="fill:#71B6E3;" width="500" height="500"/>
</g>
<g id="OBJECTS">
	<g>
		<path style="fill:#DCE8EF;" d="M486.42,85.24c-0.84,2.82-2.54,5.28-4.84,7.05c0.17,3.1-0.39,6.24-1.68,9.14
			c-2.38,5.34-6.99,9.36-12.61,10.99c-5.61,1.63-11.65,0.7-16.52-2.53c-1.1-0.74-2.12-1.57-3.05-2.52
			c-2.34,3.32-5.9,5.71-10.03,6.53c-3.96,0.78-7.97,0.05-11.33-1.93c-3.2,8.34-10.32,14.69-19.17,16.82
			c-8.92,2.16-18.23-0.31-24.9-6.38c-7.37,3.04-15.67,3.4-23.39,0.85c-6.41-2.11-11.96-6.06-16.02-11.25
			c-2.95,2.17-6.64,3.21-10.39,2.82c-3.92-0.41-7.45-2.34-9.89-5.26c-1.68,3.85-4.75,6.98-8.66,8.73
			c-4.27,1.92-9.12,1.98-13.39,0.22c-3.63,3.97-8.61,6.56-14.08,7.16c-5.98,0.66-11.92-1.1-16.53-4.81
			c-6.54,5.38-15.73,6.66-23.63,2.95c-6.29-2.94-10.66-8.53-12.22-14.96c-5.15,2.55-11.52,2.04-16.27-1.82
			c-4.05-3.29-5.96-8.24-5.52-13.08c-1.59-1.19-2.88-2.8-3.68-4.72c-0.71-1.7-0.99-3.49-0.86-5.25
			c5.7,11.57,18.25,17.89,30.74,15.85c1.72,4.35,5.11,7.88,9.47,9.78c3.68,1.6,7.74,1.9,11.55,0.92c5.38,5.18,13.32,6.91,20.47,4.27
			c5.81-2.16,10.13-6.86,11.91-12.54c4.57,2.91,10.08,4.13,15.54,3.32c5.53-0.82,10.51-3.63,14.03-7.84
			c3.11,4.07,8.27,6.21,13.49,5.38c4.03-0.64,7.48-2.96,9.61-6.22c6.88,7.9,17.62,11.49,28,9.13c8.7-1.98,15.81-7.83,19.52-15.61
			c2.99,3.31,7.24,5.37,11.87,5.51c4.9,0.15,9.51-1.85,12.74-5.32c4.16,4.75,10.49,7.18,16.9,6.26c4.38-0.62,8.29-2.74,11.17-5.84
			c2.28,2.39,5.25,4.05,8.55,4.73c4.64,0.95,9.45-0.15,13.21-3.01c3.77-2.87,6.11-7.22,6.43-11.93c0.32-4.72-1.41-9.34-4.75-12.69
			c2.72-1.01,5.7-1.14,8.54-0.37c3.62,1,6.68,3.42,8.5,6.7C487.08,77.76,487.5,81.64,486.42,85.24z"/>
		<path style="fill:#F9FBFC;" d="M472.96,80.83c-0.32,4.71-2.66,9.06-6.43,11.93c-3.76,2.86-8.57,3.96-13.21,3.01
			c-3.3-0.68-6.27-2.34-8.55-4.73c-2.88,3.1-6.79,5.22-11.17,5.84c-6.41,0.92-12.74-1.51-16.9-6.26c-3.23,3.47-7.84,5.47-12.74,5.32
			c-4.63-0.14-8.88-2.2-11.87-5.51c-3.71,7.78-10.82,13.63-19.52,15.61c-10.38,2.36-21.12-1.23-28-9.13
			c-2.13,3.26-5.58,5.58-9.61,6.22c-5.22,0.83-10.38-1.31-13.49-5.38c-3.52,4.21-8.5,7.02-14.03,7.84
			c-5.46,0.81-10.97-0.41-15.54-3.32c-1.78,5.68-6.1,10.38-11.91,12.54c-7.15,2.64-15.09,0.91-20.47-4.27
			c-3.81,0.98-7.87,0.68-11.55-0.92c-4.36-1.9-7.75-5.43-9.47-9.78c-12.49,2.04-25.04-4.28-30.74-15.85
			c-2.92-0.08-5.71-1.38-7.65-3.67c-2.5-2.94-3.17-7.03-1.73-10.62c1.44-3.59,4.74-6.08,8.58-6.49c2.1-0.22,4.16,0.2,5.95,1.15
			c1.81-2.76,4.74-4.67,8.1-5.17c4.1-0.61,8.2,0.99,10.8,4.16c3.74-5.05,9.5-8.38,15.92-9c5.41-0.52,10.72,0.94,15.04,3.95
			c1.73-3.23,4.83-5.64,8.6-6.4c3.41-0.68,6.84,0.09,9.57,1.96c1.45-2.62,3.69-4.78,6.47-6.13c2.52-1.23,5.29-1.69,7.99-1.41
			c4.82-12.07,16.99-19.95,30.37-18.99c12.56,0.9,22.94,9.38,26.67,20.86c4.04-2.69,9.08-3.68,13.98-2.58
			c4.64,1.05,8.59,3.86,11.12,7.71c2.15-2.53,4.94-4.5,8.13-5.69c3.36-1.26,6.95-1.57,10.4-0.97c4.52-9.05,14.3-14.8,24.93-13.72
			c10.35,1.05,18.61,8.27,21.44,17.68c6-1.09,12.29,0.33,17.31,4.1c4.44,3.34,7.4,8.15,8.46,13.42
			C471.55,71.49,473.28,76.11,472.96,80.83z"/>
		<path style="fill:#DCE8EF;" d="M286.694,96.977c1.224,1.263,2.375,2.034,3.531,2.528c1.153,0.49,2.275,0.689,3.396,0.68
			c1.121-0.021,2.236-0.243,3.377-0.759c1.144-0.519,2.277-1.312,3.478-2.601c0.431,1.728-0.227,3.678-1.538,5.076
			c-1.306,1.411-3.281,2.274-5.274,2.282c-1.993,0.03-3.984-0.788-5.32-2.17C287.006,100.645,286.306,98.713,286.694,96.977z"/>
		<path style="fill:#DCE8EF;" d="M438.385,87.565c1.224,1.264,2.374,2.034,3.532,2.528c1.153,0.49,2.275,0.689,3.396,0.68
			c1.121-0.021,2.236-0.243,3.377-0.759c1.144-0.519,2.277-1.312,3.478-2.601c0.431,1.729-0.227,3.678-1.538,5.076
			c-1.306,1.412-3.281,2.274-5.274,2.282c-1.993,0.03-3.984-0.788-5.32-2.17C438.698,91.233,437.998,89.302,438.385,87.565z"/>
		<path style="fill:#DCE8EF;" d="M371.66,76.658c2.44,4.058,5.5,7.163,9.035,9.247c3.524,2.086,7.452,3.117,11.38,3.075
			c3.927-0.052,7.828-1.169,11.304-3.331c3.486-2.161,6.477-5.328,8.835-9.437c0.09,4.769-2.188,9.671-5.924,13.149
			c-3.723,3.507-8.914,5.583-14.149,5.616c-5.235,0.074-10.467-1.887-14.265-5.31C374.068,86.272,371.682,81.426,371.66,76.658z"/>
		<path style="fill:#DCE8EF;" d="M333.563,87.68c1.944,2.279,3.906,3.781,5.961,4.76c2.048,0.975,4.13,1.404,6.21,1.385
			c2.08-0.035,4.149-0.508,6.173-1.527c2.031-1.025,3.959-2.565,5.86-4.884c0.548,2.979-0.669,6.255-2.949,8.597
			c-2.272,2.364-5.63,3.797-9.019,3.813c-3.388,0.051-6.773-1.307-9.096-3.62C334.377,93.912,333.089,90.669,333.563,87.68z"/>
		<path style="fill:#DCE8EF;" d="M251.834,97.592c-1.23,2.097-3.319,3.668-5.681,4.552c-2.371,0.882-5.044,1.062-7.561,0.513
			c-2.52-0.54-4.878-1.813-6.67-3.6c-1.784-1.784-3.032-4.084-3.276-6.504c1.744,1.673,3.424,3.006,5.22,4.031
			c1.785,1.027,3.648,1.74,5.575,2.165c1.929,0.419,3.921,0.543,5.972,0.349C247.474,98.912,249.556,98.395,251.834,97.592z"/>
	</g>
	<g>
		<path style="fill:#DCE8EF;" d="M476.25,206.76c-1.59,1.73-3.74,2.75-5.99,2.93c-0.94,3.05-2.93,5.75-5.71,7.55
			c-3.48,2.26-7.72,2.82-11.58,1.65c-2.91,3.24-6.96,5.38-11.46,5.87c-5.1,0.54-10.07-1.12-13.78-4.39c-1.17,1.7-2.65,3.19-4.39,4.4
			c-1.92,1.33-4.07,2.23-6.29,2.7c-0.37,4.85-2.32,9.57-5.74,13.35c-5.55,6.14-13.97,8.65-21.85,6.77c-2.38,3.59-6.2,6.09-10.6,6.76
			c-5.5,0.84-10.98-1.31-14.43-5.55c-4.87,3.93-11.26,5.59-17.52,4.4c-7.41-1.4-13.53-6.54-16.19-13.56
			c-6.57,4.06-14.22,6.22-22.09,6.11c-10.89-0.16-21.25-4.66-28.8-12.47c-2.9,1.9-6.38,2.88-9.96,2.67
			c-4.2-0.24-8.06-2.08-10.88-5.01c-2.56,0.47-5.24,0.07-7.61-1.23c-3.93-2.16-6.27-6.4-5.98-10.88c0.05-0.82,0.19-1.61,0.4-2.38
			c0.8,2.93,2.74,5.49,5.46,7.04c3.28,1.86,7.2,2.02,10.56,0.5c2.42,3.2,6.26,5.05,10.31,4.91c3.5-0.13,6.74-1.72,8.97-4.31
			c4,5.2,10.71,7.66,17.19,6.18c5.36-1.22,9.7-4.93,11.81-9.81c2.14,3.5,5.93,5.79,10.18,5.93c3.72,0.13,7.2-1.4,9.61-4.02
			c4.68,5.07,12.31,6.62,18.75,3.4c5.41-2.7,8.64-8.09,8.78-13.79c5.88,8.26,16.09,12.62,26.37,10.81
			c10.45-1.84,18.65-9.64,21.21-19.64c2.68,3.5,7.02,5.45,11.54,5.01c4.42-0.43,8.23-3.07,10.23-6.87c1.94,2.89,5.05,4.83,8.58,5.27
			c2.86,0.36,5.71-0.3,8.08-1.81c1.97,1.96,4.77,2.92,7.59,2.51c2.17-0.31,4.11-1.4,5.49-3.01c2.18,1.45,4.89,1.93,7.46,1.26
			c1.94-0.51,3.64-1.63,4.86-3.15c1.19,0.27,2.45,0.19,3.62-0.23c1.74-0.64,3.13-1.99,3.8-3.72c0.57-1.45,0.58-3.04,0.07-4.49
			c0.57,0.63,1.06,1.35,1.44,2.15C479.39,199.95,478.79,203.99,476.25,206.76z"/>
		<path style="fill:#F9FBFC;" d="M476.25,198.91c-0.67,1.73-2.06,3.08-3.8,3.72c-1.17,0.42-2.43,0.5-3.62,0.23
			c-1.22,1.52-2.92,2.64-4.86,3.15c-2.57,0.67-5.28,0.19-7.46-1.26c-1.38,1.61-3.32,2.7-5.49,3.01c-2.82,0.41-5.62-0.55-7.59-2.51
			c-2.37,1.51-5.22,2.17-8.08,1.81c-3.53-0.44-6.64-2.38-8.58-5.27c-2,3.8-5.81,6.44-10.23,6.87c-4.52,0.44-8.86-1.51-11.54-5.01
			c-2.56,10-10.76,17.8-21.21,19.64c-10.28,1.81-20.49-2.55-26.37-10.81c-0.14,5.7-3.37,11.09-8.78,13.79
			c-6.44,3.22-14.07,1.67-18.75-3.4c-2.41,2.62-5.89,4.15-9.61,4.02c-4.25-0.14-8.04-2.43-10.18-5.93
			c-2.11,4.88-6.45,8.59-11.81,9.81c-6.48,1.48-13.19-0.98-17.19-6.18c-2.23,2.59-5.47,4.18-8.97,4.31
			c-4.05,0.14-7.89-1.71-10.31-4.91c-3.36,1.52-7.28,1.36-10.56-0.5c-2.72-1.55-4.66-4.11-5.46-7.04c0.96-3.45,3.5-6.31,6.92-7.65
			c3.71-1.46,7.87-0.9,11.03,1.41c1.09-3.66,3.91-6.69,7.72-7.96c1.62-0.54,3.28-0.71,4.89-0.55c0.34-6.74,4.24-13,10.54-16.19
			c5.09-2.57,10.87-2.68,15.88-0.67c0.7-2.99,2.43-5.69,4.98-7.57c1.85-1.37,3.99-2.2,6.19-2.47c1.37-14.48,12.39-26.56,27.18-28.91
			c12.86-2.03,25.28,3.82,32.09,14.17c5.78-3.63,13.1-4.27,19.55-1.43c5.04,2.22,8.87,6.27,10.89,11.14
			c6.19-2,12.95-1.82,19.13,0.64c6.67,2.67,12.02,7.75,15.04,14.12c3.15-0.82,6.55-0.59,9.66,0.76c3.84,1.68,6.73,4.86,8.07,8.68
			c2.45-0.66,5.03-0.64,7.47,0.06c1.53-1.52,3.58-2.48,5.82-2.64c2.87-0.2,5.6,0.95,7.46,3.02l0.01,0.01
			C476.83,195.87,476.82,197.46,476.25,198.91z"/>
		<path style="fill:#DCE8EF;" d="M304.05,217.264c1.023,1.323,2.116,2.239,3.297,2.842c1.176,0.602,2.406,0.878,3.637,0.866
			c1.23-0.019,2.453-0.322,3.614-0.949c1.165-0.629,2.239-1.566,3.236-2.91c0.226,1.673-0.491,3.479-1.78,4.766
			c-1.285,1.3-3.153,2.082-5.037,2.092c-1.884,0.028-3.766-0.713-5.079-1.984C304.621,220.728,303.864,218.941,304.05,217.264z"/>
		<path style="fill:#DCE8EF;" d="M398.298,199.744c1.022,1.323,2.116,2.239,3.297,2.842c1.176,0.602,2.406,0.878,3.637,0.866
			c1.23-0.019,2.453-0.322,3.614-0.949c1.165-0.629,2.239-1.566,3.236-2.91c0.227,1.673-0.491,3.479-1.78,4.767
			c-1.285,1.299-3.153,2.082-5.037,2.092c-1.884,0.028-3.766-0.713-5.079-1.984C398.869,203.207,398.112,201.421,398.298,199.744z"
			/>
		<path style="fill:#DCE8EF;" d="M436.451,201.162c1.022,1.323,2.116,2.239,3.297,2.842c1.176,0.602,2.407,0.878,3.637,0.866
			c1.23-0.019,2.453-0.322,3.614-0.949c1.165-0.629,2.239-1.566,3.236-2.91c0.226,1.673-0.491,3.479-1.78,4.767
			c-1.285,1.299-3.153,2.082-5.037,2.092c-1.884,0.028-3.766-0.713-5.079-1.984C437.022,204.626,436.265,202.839,436.451,201.162z"
			/>
		<path style="fill:#DCE8EF;" d="M342.063,203.308c2.132,2.952,4.509,5.061,7.124,6.458c2.606,1.396,5.387,2.052,8.166,2.024
			c2.779-0.042,5.541-0.758,8.115-2.21c2.581-1.455,4.912-3.61,6.985-6.607c0.375,3.656-1.243,7.548-4.074,10.319
			c-2.821,2.796-6.873,4.473-10.96,4.495c-4.086,0.059-8.171-1.526-11.051-4.259C343.479,210.82,341.776,206.97,342.063,203.308z"/>
	</g>
	<g>
		<path style="fill:#DCE8EF;" d="M257.02,178.06c-2.01,4.1-6.16,6.73-10.73,6.78c-3.35,0.04-6.51-1.3-8.78-3.63
			c-2.01,2.51-5.23,3.87-8.54,3.45c-2.95-0.37-5.49-2.09-6.95-4.54c-5.13,2.47-11.14,2.69-16.53,0.47c-0.41-0.17-0.81-0.35-1.2-0.54
			c-3.84,2.55-8.37,4.04-13.15,4.17c-8.51,0.23-16.49-3.89-21.25-10.81c-2.48,2.34-6.02,3.33-9.43,2.46
			c-4.29-1.09-7.36-4.85-7.58-9.27c-0.07-1.47,0.18-2.9,0.7-4.2c0.57,2.4,2.26,4.43,4.63,5.4c2.66,1.09,5.66,0.62,7.84-1.12
			c2.39,2.28,5.51,3.67,8.83,3.9c3.12,0.22,6.2-0.59,8.78-2.28c4.17,3.14,9.57,4.28,14.71,3.04c4.5-1.09,8.34-3.89,10.74-7.73
			c1.66,3.1,4.85,5.14,8.43,5.29c2.54,0.11,4.96-0.76,6.83-2.33c0.57,2.31,2.35,4.22,4.76,4.85c1.98,0.52,4.03,0.09,5.59-1.07
			c1.1,1.46,2.66,2.53,4.45,3.02c2.18,0.6,4.5,0.29,6.45-0.86c1.95-1.14,3.35-3.02,3.88-5.22c0.54-2.19,0.17-4.51-1.03-6.42
			c2.86,0.55,5.48,2.14,7.31,4.55C258.54,169.06,259.02,173.95,257.02,178.06z"/>
		<path style="fill:#F9FBFC;" d="M249.5,167.29c-0.53,2.2-1.93,4.08-3.88,5.22c-1.95,1.15-4.27,1.46-6.45,0.86
			c-1.79-0.49-3.35-1.56-4.45-3.02c-1.56,1.16-3.61,1.59-5.59,1.07c-2.41-0.63-4.19-2.54-4.76-4.85c-1.87,1.57-4.29,2.44-6.83,2.33
			c-3.58-0.15-6.77-2.19-8.43-5.29c-2.4,3.84-6.24,6.64-10.74,7.73c-5.14,1.24-10.54,0.1-14.71-3.04c-2.58,1.69-5.66,2.5-8.78,2.28
			c-3.32-0.23-6.44-1.62-8.83-3.9c-2.18,1.74-5.18,2.21-7.84,1.12c-2.37-0.97-4.06-3-4.63-5.4c1.04-2.63,3.16-4.77,5.94-5.77
			c1.87-0.67,3.83-0.76,5.67-0.34c0.23-0.82,0.58-1.61,1.05-2.33c1.25-1.94,3.22-3.31,5.49-3.78c2.03-0.42,4.14-0.09,5.93,0.9
			c1.64-4.32,4.92-7.92,9.25-9.93c4.78-2.23,10.23-2.22,14.93-0.13c2.76-4.18,7.76-6.59,12.99-5.83c5.54,0.8,9.83,4.94,11.03,10.15
			c5.19-1.57,10.87-0.67,15.35,2.56c4.26,3.06,6.88,7.84,7.26,12.97C249.67,162.78,250.04,165.1,249.5,167.29z"/>
		<path style="fill:#DCE8EF;" d="M176.723,164.178c1.022,1.323,2.116,2.239,3.297,2.842c1.176,0.602,2.406,0.878,3.637,0.866
			c1.23-0.019,2.453-0.322,3.614-0.949c1.165-0.629,2.239-1.566,3.236-2.91c0.227,1.673-0.491,3.479-1.78,4.766
			c-1.285,1.299-3.153,2.082-5.037,2.092c-1.884,0.028-3.766-0.713-5.079-1.984C177.294,167.641,176.538,165.855,176.723,164.178z"
			/>
		<path style="fill:#DCE8EF;" d="M230.578,166.163c1.023,1.323,2.116,2.239,3.297,2.842c1.176,0.602,2.406,0.878,3.637,0.866
			c1.23-0.019,2.453-0.322,3.614-0.949c1.165-0.629,2.239-1.566,3.236-2.91c0.226,1.673-0.491,3.479-1.78,4.766
			c-1.285,1.299-3.153,2.082-5.037,2.092c-1.884,0.028-3.766-0.713-5.079-1.984C231.149,169.626,230.392,167.839,230.578,166.163z"
			/>
		<path style="fill:#DCE8EF;" d="M221.563,158.085c-0.815,2.29-2.572,4.226-4.727,5.537c-2.163,1.312-4.755,1.989-7.331,1.922
			c-2.576-0.057-5.132-0.866-7.227-2.285c-2.087-1.418-3.745-3.442-4.438-5.774c2.027,1.316,3.927,2.31,5.883,2.98
			c1.946,0.674,3.909,1.025,5.882,1.081c1.974,0.05,3.954-0.202,5.932-0.777C217.528,160.199,219.476,159.3,221.563,158.085z"/>
	</g>
	<g>
		<path style="fill:#DCE8EF;" d="M123.24,295.48c-0.02,2.4-0.99,4.7-2.71,6.38c-1.09,1.06-2.41,1.82-3.84,2.22
			c-1.75,5.73-6.72,10.05-12.85,10.81c-5.64,0.7-11.06-1.75-14.3-6.14c-2.74,2.5-6.63,3.41-10.23,2.3
			c-2.85,3.63-7.32,5.77-12.08,5.59c-5.1-0.18-9.65-3-12.13-7.3c-2.91,1.69-6.43,2.03-9.64,0.88c-2.92-1.04-5.25-3.19-6.54-5.94
			c-1.98,0.55-4.15,0.31-6.02-0.78c-2.46-1.44-3.9-4.07-3.88-6.82c0.75,2.56,2.83,4.52,5.44,5.1c2.28,0.52,4.64-0.09,6.39-1.59
			c2.32,3.62,6.6,5.55,10.91,4.83c3.93-0.66,7.11-3.39,8.42-7.05c2.68,5.21,8.82,7.86,14.56,5.99c4.51-1.47,7.58-5.33,8.25-9.72
			c1.36,2.14,3.38,3.83,5.8,4.79c3.24,1.28,6.83,1.12,9.9-0.38c1.65,2.75,4.93,4.16,8.12,3.36c2.52-0.63,4.44-2.52,5.2-4.86
			c2.29,1.4,5.27,1.33,7.52-0.34c1.78-1.32,2.74-3.37,2.73-5.45C122.9,292.63,123.25,294.04,123.24,295.48z"/>
		<path style="fill:#F9FBFC;" d="M122.26,291.36c0.01,2.08-0.95,4.13-2.73,5.45c-2.25,1.67-5.23,1.74-7.52,0.34
			c-0.76,2.34-2.68,4.23-5.2,4.86c-3.19,0.8-6.47-0.61-8.12-3.36c-3.07,1.5-6.66,1.66-9.9,0.38c-2.42-0.96-4.44-2.65-5.8-4.79
			c-0.67,4.39-3.74,8.25-8.25,9.72c-5.74,1.87-11.88-0.78-14.56-5.99c-1.31,3.66-4.49,6.39-8.42,7.05
			c-4.31,0.72-8.59-1.21-10.91-4.83c-1.75,1.5-4.11,2.11-6.39,1.59c-2.61-0.58-4.69-2.54-5.44-5.1c-0.81-0.37-1.54-0.91-2.16-1.58
			c-1.69-1.83-2.26-4.43-1.5-6.79c0.76-2.37,2.73-4.15,5.16-4.67c1.67-0.35,3.37-0.07,4.81,0.74c0.34-2.21,1.55-4.27,3.45-5.65
			c2.58-1.88,5.93-2.15,8.72-0.85c1.01-1.43,2.43-2.58,4.12-3.27c2.89-1.18,6.16-0.85,8.74,0.85c2.9-5.37,8.53-8.89,14.84-8.96
			c6.26-0.07,11.93,3.26,14.98,8.49c2.04-1.43,4.63-2,7.16-1.5c2.62,0.53,4.84,2.13,6.16,4.35c3.34-1.27,7.19-0.58,9.88,1.95
			c1.96,1.84,3,4.36,3.01,6.92c1.58,0.38,3.03,1.19,4.2,2.36C121.27,289.75,121.83,290.52,122.26,291.36z"/>
		<path style="fill:#DCE8EF;" d="M91.961,294.362c1.022,1.323,2.116,2.239,3.297,2.842c1.176,0.602,2.407,0.878,3.637,0.866
			c1.23-0.019,2.453-0.322,3.614-0.949c1.165-0.629,2.239-1.566,3.236-2.91c0.226,1.673-0.491,3.478-1.78,4.766
			c-1.285,1.299-3.153,2.082-5.037,2.092c-1.884,0.028-3.766-0.713-5.079-1.984C92.532,297.826,91.776,296.039,91.961,294.362z"/>
		<path style="fill:#DCE8EF;" d="M73.645,294.458c-0.815,2.29-2.572,4.226-4.727,5.537c-2.163,1.312-4.755,1.989-7.33,1.922
			c-2.576-0.057-5.132-0.866-7.226-2.285c-2.088-1.418-3.745-3.442-4.438-5.774c2.027,1.316,3.927,2.31,5.883,2.98
			c1.946,0.674,3.909,1.025,5.882,1.081c1.973,0.05,3.954-0.202,5.932-0.777C69.609,296.572,71.558,295.673,73.645,294.458z"/>
	</g>
	<g>
		<path style="fill:#DCE8EF;" d="M109.13,375.24c-0.37,2.91-2.28,5.4-5,6.51c-1.44,0.59-2.99,0.74-4.47,0.48
			c-1,1.79-2.76,3.1-4.86,3.51c-2.26,0.43-4.52-0.25-6.15-1.73c-2.19,2.99-5.61,4.9-9.37,5.15c-3.86,0.25-7.59-1.27-10.17-4.08
			c-3.26,5.99-9.45,9.82-16.29,10.06c-6.82,0.24-13.23-3.11-16.92-8.79c-2.4,0.56-4.94,0.31-7.23-0.77c-2.97-1.39-5.16-4.02-6-7.14
			c1.42,2.68,4.22,4.33,7.25,4.27c2.4-0.06,4.62-1.18,6.08-3.01c2.72,3.13,6.9,4.7,11.1,4.02c3.95-0.64,7.25-3.17,8.94-6.66
			c1.27,1.43,3.17,2.24,5.18,2.07c1.98-0.17,3.7-1.26,4.7-2.86c2.13,3.22,6.11,4.86,10.02,3.9c3.4-0.84,5.94-3.44,6.8-6.64
			c1.08,1.28,2.71,2.06,4.49,2.04c1.69-0.02,3.24-0.76,4.3-1.96c2.31,3.49,6.65,5.2,10.81,4.06c3.05-0.84,5.4-3.05,6.51-5.82
			C109.18,372.93,109.28,374.08,109.13,375.24z"/>
		<path style="fill:#F9FBFC;" d="M108.85,371.85c-1.11,2.77-3.46,4.98-6.51,5.82c-4.16,1.14-8.5-0.57-10.81-4.06
			c-1.06,1.2-2.61,1.94-4.3,1.96c-1.78,0.02-3.41-0.76-4.49-2.04c-0.86,3.2-3.4,5.8-6.8,6.64c-3.91,0.96-7.89-0.68-10.02-3.9
			c-1,1.6-2.72,2.69-4.7,2.86c-2.01,0.17-3.91-0.64-5.18-2.07c-1.69,3.49-4.99,6.02-8.94,6.66c-4.2,0.68-8.38-0.89-11.1-4.02
			c-1.46,1.83-3.68,2.95-6.08,3.01c-3.03,0.06-5.83-1.59-7.25-4.27c-0.82-0.02-1.65-0.23-2.4-0.61c-1.71-0.86-2.88-2.53-3.1-4.44
			c-0.22-1.9,0.53-3.79,2-5.03c0.48-0.4,1.02-0.72,1.59-0.94c-0.29-2.24,0.38-4.56,1.98-6.33c1.68-1.85,4.06-2.76,6.42-2.6
			c-0.5-3.62,0.28-7.34,2.24-10.48c2.4-3.85,6.34-6.48,10.82-7.22c4.47-0.75,9.05,0.47,12.56,3.34c1.65,1.34,2.99,2.98,3.96,4.81
			c3.03-1.78,6.83-1.88,10-0.12c2.37,1.32,4.06,3.49,4.79,5.97c3.9-1.94,8.56-1.99,12.56,0.07c3.21,1.64,5.57,4.4,6.74,7.65
			c1.66-0.54,3.53-0.36,5.09,0.63c1.14,0.71,1.96,1.76,2.42,2.93c1.98-0.17,3.98,0.38,5.61,1.61
			C107.36,368.74,108.36,370.21,108.85,371.85z"/>
		<path style="fill:#DCE8EF;" d="M59.042,371.597c1.022,1.323,2.116,2.239,3.297,2.842c1.176,0.602,2.407,0.878,3.637,0.866
			c1.23-0.019,2.453-0.322,3.614-0.949c1.165-0.629,2.239-1.566,3.236-2.91c0.226,1.673-0.491,3.479-1.78,4.767
			c-1.285,1.299-3.153,2.082-5.037,2.092c-1.884,0.028-3.766-0.713-5.079-1.984C59.613,375.061,58.857,373.274,59.042,371.597z"/>
		<path style="fill:#DCE8EF;" d="M87.931,371.468c1.281,1.511,2.678,2.063,4.074,2.061c1.396-0.033,2.775-0.614,4.028-2.15
			c0.183,0.998-0.229,2.089-0.989,2.875c-0.76,0.79-1.884,1.269-3.017,1.275c-1.133,0.017-2.265-0.437-3.043-1.21
			C88.209,373.549,87.773,372.47,87.931,371.468z"/>
		<path style="fill:#DCE8EF;" d="M44.989,376.857c-0.575,1.674-1.847,3.091-3.413,4.052c-1.571,0.96-3.459,1.457-5.335,1.408
			c-1.876-0.042-3.737-0.634-5.259-1.672c-1.516-1.038-2.715-2.519-3.202-4.223c1.487,0.942,2.868,1.65,4.286,2.128
			c1.41,0.48,2.827,0.729,4.251,0.769c1.424,0.036,2.853-0.142,4.286-0.55C42.044,378.364,43.459,377.725,44.989,376.857z"/>
	</g>
	<g>
		<path style="fill:#DCE8EF;" d="M174.01,108.65c-2.8,4.25-7.42,6.96-12.49,7.34c-2.92,0.21-5.81-0.36-8.37-1.61
			c-0.82,1.36-1.84,2.63-3.06,3.75c-3.92,3.6-9.12,5.03-14.06,4.26c-0.18,0.79-0.42,1.57-0.71,2.34c-1.94,5.14-6,9.21-11.14,11.17
			c-5.14,1.96-10.88,1.62-15.75-0.93c-4.19-2.2-7.41-5.85-9.06-10.24c-14.03,2.53-28.4-4.43-34.93-17.52
			c-5.1,2.77-11.12,3.64-16.95,2.28c-7.52-1.77-13.67-6.99-16.65-13.97c-1.43-0.29-2.8-0.92-3.98-1.84
			c-2.29-1.79-3.64-4.51-3.69-7.41c-0.05-2.9,1.21-5.67,3.43-7.54c1.76-1.47,3.98-2.26,6.24-2.25c-2.75,2.99-2.79,7.57-0.09,10.6
			c0.83,0.93,1.83,1.62,2.92,2.05c0.75,6.38,5.12,11.86,11.34,13.93c5.92,1.96,12.33,0.45,16.74-3.71
			c3.36,3.52,7.85,5.82,12.74,6.48c4.43,0.6,8.9-0.18,12.83-2.19c0.55,4.82,3.82,8.99,8.52,10.6c4.45,1.53,9.31,0.46,12.7-2.63
			c4.61,3.49,10.66,4.64,16.32,2.96c5.27-1.56,9.48-5.37,11.61-10.28c4.04,2.41,9,2.88,13.47,1.18c2.66-1,4.94-2.7,6.65-4.84
			c3.81,1.36,8.08,0.18,10.66-2.97c2.67-3.26,2.91-7.86,0.61-11.38c2.75,1.96,4.85,4.74,5.97,8.01
			C177.49,99.1,176.81,104.41,174.01,108.65z"/>
		<path style="fill:#F9FBFC;" d="M169.25,97.66c-2.58,3.15-6.85,4.33-10.66,2.97c-1.71,2.14-3.99,3.84-6.65,4.84
			c-4.47,1.7-9.43,1.23-13.47-1.18c-2.13,4.91-6.34,8.72-11.61,10.28c-5.66,1.68-11.71,0.53-16.32-2.96
			c-3.39,3.09-8.25,4.16-12.7,2.63c-4.7-1.61-7.97-5.78-8.52-10.6c-3.93,2.01-8.4,2.79-12.83,2.19c-4.89-0.66-9.38-2.96-12.74-6.48
			c-4.41,4.16-10.82,5.67-16.74,3.71c-6.22-2.07-10.59-7.55-11.34-13.93c-1.09-0.43-2.09-1.12-2.92-2.05
			c-2.7-3.03-2.66-7.61,0.09-10.6c1.76-4.12,5.36-7.29,9.85-8.43c2.78-0.7,5.64-0.56,8.24,0.32c3.16-6.7,9.2-11.73,16.58-13.56
			c3.52-0.87,7.1-0.95,10.54-0.3c4.41-12.36,16.43-20.68,29.89-20.11c11.65,0.48,21.67,7.51,26.34,17.63
			c4.06-0.66,8.27,0.07,11.92,2.17c3.76,2.16,6.57,5.56,8.02,9.55c6.19-0.19,12.1,3.17,15.03,8.86c2.25,4.36,2.37,9.35,0.61,13.67
			C172.16,89.8,171.92,94.4,169.25,97.66z"/>
		<path style="fill:#DCE8EF;" d="M151.089,95.285c1.225,1.263,2.375,2.034,3.532,2.528c1.153,0.491,2.275,0.689,3.396,0.68
			c1.121-0.021,2.236-0.243,3.377-0.759c1.144-0.519,2.277-1.312,3.478-2.601c0.431,1.729-0.227,3.678-1.538,5.076
			c-1.306,1.411-3.281,2.274-5.274,2.282c-1.993,0.03-3.984-0.788-5.32-2.17C151.402,98.953,150.702,97.021,151.089,95.285z"/>
		<path style="fill:#DCE8EF;" d="M77.214,93.632c-0.815,2.29-2.572,4.226-4.727,5.537c-2.163,1.312-4.755,1.989-7.33,1.922
			c-2.576-0.057-5.132-0.866-7.227-2.285c-2.087-1.418-3.745-3.442-4.438-5.774c2.027,1.316,3.927,2.31,5.883,2.98
			c1.946,0.674,3.909,1.025,5.882,1.081c1.974,0.05,3.954-0.202,5.932-0.777C73.179,95.746,75.127,94.848,77.214,93.632z"/>
		<path style="fill:#DCE8EF;" d="M98.382,102.793c1.879,3.121,4.28,5.176,6.89,6.275c2.599,1.101,5.348,1.266,7.865,0.578
			c2.516-0.677,4.817-2.189,6.505-4.45c1.703-2.257,2.761-5.236,2.821-8.88c2.365,2.827,2.895,7.274,1.354,11.077
			c-0.733,1.921-1.997,3.657-3.562,5.067c-1.587,1.387-3.502,2.429-5.56,2.977c-4.112,1.148-8.715,0.18-11.922-2.389
			C99.531,110.529,97.77,106.421,98.382,102.793z"/>
	</g>
	<g>
		<path style="fill:#DCE8EF;" d="M253.39,450.92c-0.32,2.59-1.74,4.93-3.9,6.4c-2.16,1.47-4.86,1.93-7.39,1.27
			c-2.1-0.55-3.92-1.84-5.14-3.6c-1.04,1.25-2.53,2.11-4.23,2.37c-2.54,0.38-5.02-0.66-6.52-2.62c-1.91,2.99-5.18,4.99-8.9,5.22
			c-3.95,0.25-7.64-1.56-9.89-4.6c-2.93,3.19-7.05,5.22-11.59,5.47c-5.79,0.32-11.21-2.32-14.55-6.81c-1.62,2.22-3.88,3.98-6.58,5
			c-4.68,1.77-9.84,0.97-13.72-1.91c-2.41,5.46-7.14,9.76-13.17,11.47c-8,2.28-16.48-0.52-21.59-6.84c-2.11,1.8-4.68,3.05-7.49,3.59
			c-3.96,0.76-8.01,0.02-11.41-2.01c-3.31,2.61-7.47,3.99-11.74,3.84c-4.11-0.14-8.01-1.68-11.08-4.32
			c-3.66,2.17-7.98,3.03-12.25,2.4c-3.43-0.51-6.61-1.95-9.22-4.12c-2.43,1.61-5.55,1.96-8.33,0.83c-3.36-1.37-5.57-4.64-5.58-8.28
			c0-0.32,0.02-0.64,0.06-0.95c1.07,2.23,3.27,3.79,5.85,3.99c1.98,0.15,3.86-0.54,5.26-1.79c2.8,1.77,6.32,2.16,9.51,0.95
			c3.44-1.31,5.94-4.28,6.67-7.82c2.76,1.77,6.3,2.12,9.45,0.75c3.83-1.69,6.18-5.55,5.98-9.66c2.54,0.28,5.13-0.24,7.39-1.49
			c2.45-1.36,4.37-3.5,5.45-6.05c2.26,6.55,8.72,10.92,15.84,10.34c5.19-0.42,9.61-3.38,12.08-7.6c1.8,2.49,4.58,4.21,7.8,4.61
			c3.43,0.43,6.75-0.71,9.16-2.95c2.87,5.37,8.89,8.48,15.08,7.52c4.18-0.65,7.72-3.04,9.92-6.36c2.64,3.36,6.67,5.45,11.07,5.61
			c3.77,0.13,7.38-1.18,10.15-3.56c2.66,5.33,7.76,9.11,13.73,10.05c5.25,0.82,10.53-0.64,14.57-3.9
			c4.34,3.48,10.29,4.04,15.17,1.56c1.25,1.75,3.22,2.93,5.45,3.12c3.25,0.28,6.31-1.59,7.55-4.61
			C253.24,447.08,253.63,449,253.39,450.92z"/>
		<path style="fill:#F9FBFC;" d="M252.31,445.43c-1.24,3.02-4.3,4.89-7.55,4.61c-2.23-0.19-4.2-1.37-5.45-3.12
			c-4.88,2.48-10.83,1.92-15.17-1.56c-4.04,3.26-9.32,4.72-14.57,3.9c-5.97-0.94-11.07-4.72-13.73-10.05
			c-2.77,2.38-6.38,3.69-10.15,3.56c-4.4-0.16-8.43-2.25-11.07-5.61c-2.2,3.32-5.74,5.71-9.92,6.36
			c-6.19,0.96-12.21-2.15-15.08-7.52c-2.41,2.24-5.73,3.38-9.16,2.95c-3.22-0.4-6-2.12-7.8-4.61c-2.47,4.22-6.89,7.18-12.08,7.6
			c-7.12,0.58-13.58-3.79-15.84-10.34c-1.08,2.55-3,4.69-5.45,6.05c-2.26,1.25-4.85,1.77-7.39,1.49c0.2,4.11-2.15,7.97-5.98,9.66
			c-3.15,1.37-6.69,1.02-9.45-0.75c-0.73,3.54-3.23,6.51-6.67,7.82c-3.19,1.21-6.71,0.82-9.51-0.95c-1.4,1.25-3.28,1.94-5.26,1.79
			c-2.58-0.2-4.78-1.76-5.85-3.99c0.33-3.24,2.42-6.08,5.48-7.35c1.57-0.65,3.26-0.83,4.87-0.56c0.11-1.15,0.52-2.29,1.24-3.28
			c1.83-2.53,5.09-3.44,7.91-2.37c1-1.65,2.39-3.07,4.08-4.11c2.62-1.6,5.71-2.14,8.66-1.57c0.27-1.99,1.25-3.87,2.84-5.26
			c0.93-0.81,2.01-1.39,3.14-1.73c-0.21-7.67,3.54-15.05,10.12-19.37c4.28-2.81,9.26-4.01,14.14-3.61
			c0.05-5.06,1.77-10.01,4.97-14.03c4.09-5.15,10.2-8.29,16.76-8.63c6.57-0.33,12.96,2.17,17.56,6.87
			c3.08,3.14,5.15,7.07,6.03,11.29c5.4-1.06,11.08-0.19,15.99,2.6c4.86,2.76,8.5,7.13,10.36,12.25c3.75-1.71,8.12-1.85,12.1-0.21
			c4.02,1.66,7.02,4.9,8.45,8.8c5.99-3.38,13.14-4.37,19.96-2.59c7.87,2.05,14.31,7.53,17.65,14.82c3.22-1.21,6.97-0.34,9.32,2.41
			C252.84,439.47,253.31,442.67,252.31,445.43z"/>
		<path style="fill:#DCE8EF;" d="M97.356,427.708c1.022,1.323,2.116,2.239,3.297,2.841c1.176,0.602,2.407,0.878,3.637,0.866
			c1.23-0.019,2.453-0.322,3.614-0.949c1.165-0.629,2.239-1.566,3.236-2.91c0.226,1.673-0.491,3.478-1.78,4.766
			c-1.285,1.299-3.153,2.082-5.037,2.092c-1.884,0.028-3.766-0.713-5.079-1.984C97.927,431.171,97.17,429.384,97.356,427.708z"/>
		<path style="fill:#DCE8EF;" d="M164.564,430.073c-1.059,2.585-3.127,4.759-5.631,6.229c-2.512,1.47-5.488,2.226-8.446,2.149
			c-2.959-0.067-5.895-0.973-8.329-2.568c-2.428-1.594-4.384-3.872-5.307-6.51c2.256,1.623,4.456,2.871,6.752,3.717
			c2.286,0.85,4.629,1.299,6.985,1.364c2.356,0.06,4.721-0.271,7.048-1.004C159.973,432.721,162.233,431.583,164.564,430.073z"/>
		<path style="fill:#DCE8EF;" d="M181.125,427.775c2.543,3.128,5.267,5.509,8.29,7.158c2.989,1.677,6.222,2.577,9.484,2.813
			c3.264,0.192,6.583-0.287,9.771-1.541c3.202-1.248,6.228-3.236,9.161-6.002c-0.729,3.998-3.344,7.681-6.885,10.135
			c-3.543,2.473-8.039,3.688-12.444,3.394c-4.401-0.302-8.702-2.084-11.88-5.015C183.431,435.828,181.334,431.826,181.125,427.775z"
			/>
	</g>
	<g>
		<path style="fill:#DCE8EF;" d="M473.17,328.72c-0.36,6.52-5.02,12-11.4,13.42c-5.29,1.18-10.7-0.69-14.15-4.66
			c-1.88,1.78-4.25,3.05-6.9,3.57c-4.17,0.83-8.42-0.28-11.62-2.88c-3.47,4.01-8.33,6.71-13.74,7.47
			c-6.51,0.92-13.01-1.08-17.84-5.34c-1.83,1.94-4.19,3.37-6.87,4.07c-4.47,1.18-9.19,0.14-12.73-2.69
			c-3.13,4.28-7.91,7.22-13.35,7.96c-4.23,0.57-8.44-0.24-12.06-2.19c-2.57,2.86-5.99,4.93-9.87,5.82
			c-5.05,1.17-10.29,0.22-14.56-2.5c-3.29,6.04-8.33,11.05-14.58,14.29c-8.39,4.35-18.14,5.09-27.02,2.13
			c-4.4,6.77-11.43,11.6-19.61,13.14c-9.51,1.79-19.18-1.13-26.08-7.62c-9.28,7.29-21.37,10.33-33.21,8.06
			c-12.08-2.32-22.37-9.9-28.22-20.47c-5.98,3.21-12.86,4.63-19.82,3.91c-8.42-0.87-16.09-4.79-21.7-10.85
			c-2.63,2.8-6.25,4.57-10.2,4.84c-5.69,0.4-11.14-2.38-14.16-7.21c-2.34-3.75-2.93-8.25-1.75-12.39c1.76,5.06,6.18,8.81,11.59,9.65
			c5.39,0.83,10.72-1.42,13.92-5.68c2.38,4.02,6.69,6.6,11.47,6.74c4.47,0.12,8.64-1.92,11.3-5.35c2.72,2.94,6.89,4.28,10.95,3.27
			c3.37-0.84,6.04-3.15,7.43-6.12c7.93,10.96,21.9,16.18,35.33,12.71c11.6-3,20.42-11.87,23.65-22.89
			c2.99,7.21,9.88,12.41,18.11,12.92c9.25,0.57,17.55-4.95,20.82-13.21c2.91,9.69,11.52,16.68,21.75,17.43
			c9.4,0.68,18.21-4.06,22.9-11.95c3.3,5.01,9.07,7.95,15.18,7.55c5.92-0.4,11.11-3.86,13.8-8.97c3.49,3.24,8.33,4.71,13.11,3.87
			c4.38-0.77,8.16-3.37,10.43-7.05c3.18,3.24,8.07,4.35,12.43,2.61c4.18-1.66,6.91-5.56,7.2-9.88c9.95,7.94,24.03,8.24,34.3,0.79
			c3.14,4.7,8.5,7.53,14.24,7.42c4.84-0.09,9.32-2.26,12.38-5.82c3.13,2.7,7.53,3.57,11.51,2.15c3.03-1.08,5.41-3.33,6.68-6.14
			C472.95,324.54,473.29,326.6,473.17,328.72z"/>
		<path style="fill:#F9FBFC;" d="M472.21,322.65c-1.27,2.81-3.65,5.06-6.68,6.14c-3.98,1.42-8.38,0.55-11.51-2.15
			c-3.06,3.56-7.54,5.73-12.38,5.82c-5.74,0.11-11.1-2.72-14.24-7.42c-10.27,7.45-24.35,7.15-34.3-0.79
			c-0.29,4.32-3.02,8.22-7.2,9.88c-4.36,1.74-9.25,0.63-12.43-2.61c-2.27,3.68-6.05,6.28-10.43,7.05
			c-4.78,0.84-9.62-0.63-13.11-3.87c-2.69,5.11-7.88,8.57-13.8,8.97c-6.11,0.4-11.88-2.54-15.18-7.55
			c-4.69,7.89-13.5,12.63-22.9,11.95c-10.23-0.75-18.84-7.74-21.75-17.43c-3.27,8.26-11.57,13.78-20.82,13.21
			c-8.23-0.51-15.12-5.71-18.11-12.92c-3.23,11.02-12.05,19.89-23.65,22.89c-13.43,3.47-27.4-1.75-35.33-12.71
			c-1.39,2.97-4.06,5.28-7.43,6.12c-4.06,1.01-8.23-0.33-10.95-3.27c-2.66,3.43-6.83,5.47-11.3,5.35
			c-4.78-0.14-9.09-2.72-11.47-6.74c-3.2,4.26-8.53,6.51-13.92,5.68c-5.41-0.84-9.83-4.59-11.59-9.65c0.33-1.21,0.82-2.38,1.47-3.5
			c2.7-4.67,7.62-7.59,12.98-7.71c0.02-3.32,1.5-6.56,4.25-8.75c3.48-2.77,8.16-3.18,11.98-1.29c1.27-2.02,3.28-3.46,5.61-4
			c0.52-0.12,1.05-0.2,1.58-0.23c-0.12-0.95-0.15-1.91-0.09-2.88c0.26-4.18,2.23-8.07,5.44-10.75c3.06-2.55,7-3.8,10.96-3.48
			c-0.38-4.52,1.21-9.1,4.55-12.44c2.47-2.48,5.62-4,8.93-4.48c4.52-15.84,18.63-27.45,35.52-28.44c15.87-0.93,30.4,7.74,37.37,21.4
			c3.9-2.39,8.75-3.04,13.29-1.55c5.82,1.9,9.97,6.93,10.84,12.87c7.8-3.44,16.71-3.76,24.82-0.75c7.24,2.69,13.22,7.79,17.03,14.32
			c5.35-4.39,12.57-6.17,19.57-4.5c6.48,1.56,11.78,5.84,14.74,11.51c3.84-4.42,9.4-7.13,15.43-7.31
			c5.39-0.16,10.53,1.73,14.47,5.13c3.26-12.22,14.56-20.9,27.57-20.51c12.52,0.38,22.95,9.04,25.97,20.73
			c4.47-0.29,8.97,0.82,12.86,3.25c3.27,2.04,5.88,4.9,7.64,8.22c2.25-0.33,4.59-0.13,6.85,0.64
			C467.53,315.54,470.7,318.73,472.21,322.65z"/>
		<path style="fill:#DCE8EF;" d="M266.808,324.702c1.43,2.003,3.036,3.44,4.809,4.392c1.766,0.952,3.656,1.401,5.545,1.382
			c1.888-0.028,3.765-0.518,5.509-1.508c1.75-0.992,3.324-2.46,4.715-4.493c0.241,2.472-0.859,5.098-2.774,6.968
			c-1.909,1.886-4.646,3.017-7.406,3.032c-2.76,0.04-5.519-1.029-7.468-2.872C267.784,329.775,266.627,327.177,266.808,324.702z"/>
		<path style="fill:#DCE8EF;" d="M228.296,326.753c1.266,1.412,2.508,2.317,3.788,2.903c1.276,0.583,2.552,0.832,3.828,0.821
			c1.275-0.022,2.544-0.299,3.806-0.909c1.266-0.614,2.487-1.543,3.727-2.981c0.393,1.878-0.354,3.964-1.786,5.456
			c-1.427,1.507-3.555,2.424-5.703,2.433c-2.147,0.032-4.292-0.836-5.752-2.311C228.742,330.703,227.95,328.638,228.296,326.753z"/>
		<path style="fill:#DCE8EF;" d="M165.262,331.156c2.543,3.128,5.267,5.509,8.29,7.158c2.989,1.676,6.223,2.577,9.484,2.813
			c3.264,0.192,6.583-0.287,9.771-1.541c3.202-1.248,6.228-3.236,9.161-6.002c-0.729,3.998-3.344,7.681-6.885,10.135
			c-3.543,2.473-8.039,3.688-12.444,3.394c-4.401-0.302-8.702-2.084-11.88-5.015C167.568,339.209,165.47,335.207,165.262,331.156z"
			/>
		<path style="fill:#DCE8EF;" d="M332.377,326.488c2.989,2.704,6.044,4.644,9.282,5.813c3.209,1.202,6.542,1.6,9.802,1.338
			c3.255-0.307,6.462-1.285,9.423-3.01c2.975-1.72,5.663-4.146,8.141-7.326c-0.112,4.063-2.137,8.1-5.263,11.064
			c-3.126,2.983-7.385,4.867-11.783,5.247c-4.395,0.371-8.918-0.736-12.504-3.15C335.881,334.097,333.199,330.461,332.377,326.488z"
			/>
		<path style="fill:#DCE8EF;" d="M414.112,318.608c2.089,1.973,4.271,3.407,6.604,4.276c2.312,0.893,4.733,1.197,7.101,1.006
			c2.364-0.222,4.692-0.947,6.82-2.216c2.138-1.265,4.05-3.046,5.768-5.351c-0.141,2.892-1.61,5.748-3.849,7.843
			c-2.238,2.108-5.267,3.437-8.393,3.708c-3.125,0.263-6.339-0.513-8.902-2.214C416.69,323.991,414.757,321.425,414.112,318.608z"/>
	</g>
	<g>
		<path style="fill:#DCE8EF;" d="M483.64,440.6c-1.28,3.58-4.42,6.18-8.19,6.77c-2.25,0.35-4.52-0.05-6.47-1.09
			c-0.86,2.64-3.1,4.72-6.01,5.26c-3.62,0.65-7.12-1.3-8.53-4.54c-2.49,2.97-6.04,4.97-10,5.51c-4.78,0.66-9.54-0.9-12.99-4.11
			c-3.22,5.45-8.59,9.5-15.04,10.95c-7.82,1.77-15.86-0.6-21.45-6.01c-2.72,5.85-8.18,10.19-14.8,11.33
			c-7.8,1.34-15.54-2-19.93-8.34c-3.18,2.56-7.39,3.72-11.61,2.96c-5.14-0.93-9.27-4.53-11-9.27c-1.77,1.21-3.84,1.99-6.06,2.23
			c-2.67,0.29-5.31-0.25-7.6-1.47c-4.64,5.04-11.24,8.06-18.31,8.1c-7.17,0.04-13.89-2.96-18.6-8.08c-2.7,1.33-5.98,1.2-8.62-0.54
			c-2.72-1.8-4.14-4.92-3.86-8.02c1.36,2.87,4.24,4.7,7.41,4.73c2.34,0.02,4.54-0.95,6.09-2.6c4.86,4.6,11.9,6.24,18.37,4.13
			c5.27-1.72,9.37-5.66,11.38-10.61c1.8,3.02,4.94,5.14,8.58,5.58c4.07,0.5,8.02-1.16,10.52-4.23c3.31,6.3,10.69,9.51,17.69,7.42
			c6.26-1.87,10.43-7.46,10.76-13.68c2.25,2.38,5.3,3.93,8.63,4.31c3.66,0.41,7.3-0.62,10.17-2.83c4.07,3.52,9.85,4.51,14.94,2.38
			c4.43-1.85,7.54-5.73,8.51-10.23c2.62,4.63,7.43,7.73,12.9,8.09c5.34,0.34,10.39-1.99,13.59-6.06c1.07,3.11,3.77,5.41,7.06,5.93
			c2.5,0.4,5-0.3,6.92-1.82c2.03,2.73,5.43,4.15,8.85,3.62c1.81-0.28,3.44-1.09,4.74-2.27c1.7,1.98,4.18,3.3,6.99,3.48
			c5.51,0.35,10.26-3.81,10.65-9.32c0.84,0.51,1.61,1.15,2.28,1.9C484.14,433,484.93,437.01,483.64,440.6z"/>
		<path style="fill:#F9FBFC;" d="M479.32,428.26c-0.39,5.51-5.14,9.67-10.65,9.32c-2.81-0.18-5.29-1.5-6.99-3.48
			c-1.3,1.18-2.93,1.99-4.74,2.27c-3.42,0.53-6.82-0.89-8.85-3.62c-1.92,1.52-4.42,2.22-6.92,1.82c-3.29-0.52-5.99-2.82-7.06-5.93
			c-3.2,4.07-8.25,6.4-13.59,6.06c-5.47-0.36-10.28-3.46-12.9-8.09c-0.97,4.5-4.08,8.38-8.51,10.23
			c-5.09,2.13-10.87,1.14-14.94-2.38c-2.87,2.21-6.51,3.24-10.17,2.83c-3.33-0.38-6.38-1.93-8.63-4.31
			c-0.33,6.22-4.5,11.81-10.76,13.68c-7,2.09-14.38-1.12-17.69-7.42c-2.5,3.07-6.45,4.73-10.52,4.23c-3.64-0.44-6.78-2.56-8.58-5.58
			c-2.01,4.95-6.11,8.89-11.38,10.61c-6.47,2.11-13.51,0.47-18.37-4.13c-1.55,1.65-3.75,2.62-6.09,2.6
			c-3.17-0.03-6.05-1.86-7.41-4.73c-0.68-0.25-1.32-0.62-1.9-1.09c-1.74-1.43-2.66-3.64-2.43-5.89c0.23-2.25,1.57-4.23,3.57-5.28
			c1.63-0.86,3.53-1,5.24-0.44c0.76-2.72,2.84-5,5.7-5.92c1.84-0.6,3.75-0.54,5.47,0.05c2.25-5.75,6.97-10.34,13.01-12.34
			c5.33-1.76,11.01-1.31,15.87,1.05c0.91-2,2.48-3.7,4.54-4.76c1.64-0.84,3.43-1.2,5.18-1.09c1.09-9.06,7.39-16.89,16.43-19.69
			c7.9-2.44,16.25-0.52,22.24,4.58c3.15-9.5,11.29-16.81,21.53-18.63c9.92-1.77,19.77,1.98,26.05,9.33
			c6.52-3.93,14.91-3.48,21.02,1.32c5.29,4.16,7.81,10.76,6.89,17.18c3.16-0.95,6.66-0.4,9.4,1.64c2.84,2.12,4.39,5.47,4.26,8.9
			c5.17-1.76,11.03-0.99,15.65,2.38C477.07,417.03,479.59,422.61,479.32,428.26z"/>
		<path style="fill:#DCE8EF;" d="M306.406,433.734c2.037,1.459,3.901,2.412,5.786,2.966c1.866,0.572,3.709,0.724,5.514,0.581
			c1.802-0.174,3.587-0.649,5.329-1.526c1.753-0.876,3.433-2.129,5.19-3.917c0.215,2.524-0.912,5.12-2.791,7.032
			c-1.881,1.926-4.542,3.156-7.296,3.391c-2.752,0.234-5.586-0.51-7.766-2.091C308.191,438.617,306.638,436.25,306.406,433.734z"/>
		<path style="fill:#DCE8EF;" d="M343.698,423.81c2.989,2.704,6.044,4.644,9.282,5.813c3.209,1.202,6.542,1.6,9.802,1.338
			c3.255-0.307,6.462-1.285,9.423-3.01c2.975-1.72,5.663-4.146,8.141-7.326c-0.112,4.063-2.137,8.1-5.263,11.064
			c-3.126,2.983-7.385,4.867-11.783,5.247c-4.395,0.371-8.918-0.736-12.504-3.15C347.202,431.419,344.52,427.782,343.698,423.81z"/>
		<path style="fill:#DCE8EF;" d="M399.178,422.977c1.424,1.229,2.845,2.096,4.338,2.615c1.479,0.534,3,0.705,4.489,0.586
			c1.486-0.141,2.952-0.577,4.319-1.352c1.375-0.773,2.632-1.867,3.823-3.323c-0.009,1.897-0.934,3.797-2.384,5.192
			c-1.45,1.405-3.442,2.294-5.499,2.471c-2.056,0.174-4.172-0.352-5.84-1.492C400.754,426.555,399.519,424.84,399.178,422.977z"/>
		<path style="fill:#DCE8EF;" d="M452.771,430.343c1.424,1.229,2.845,2.096,4.338,2.615c1.479,0.534,3,0.705,4.489,0.586
			c1.486-0.141,2.952-0.577,4.319-1.352c1.375-0.773,2.632-1.866,3.823-3.323c-0.009,1.897-0.934,3.797-2.384,5.192
			c-1.45,1.405-3.442,2.294-5.499,2.471c-2.056,0.174-4.172-0.352-5.84-1.492C454.347,433.921,453.112,432.206,452.771,430.343z"/>
	</g>
	<g>
		<path style="fill:#DCE8EF;" d="M221.24,234.19c-3.58,4.34-9.4,6.12-14.8,4.56c-3.61-1.05-6.58-3.47-8.35-6.63
			c-2.65,3.73-6.56,6.49-11.13,7.68c-5.48,1.42-11.21,0.42-15.81-2.59c-1.98,3.25-5.18,5.74-9.09,6.75c-4.8,1.24-9.74,0.01-13.35-3
			c-3.38,7.78-10.4,13.76-19.22,15.54c-11.64,2.36-23.22-3.26-28.73-13.37c-3.47,3.96-8.79,6.05-14.26,5.25
			c-6.85-1.01-12.17-6.3-13.33-12.96c-4.65,2.68-10.25,3.62-15.72,2.38c-7.6-1.72-13.6-7.32-15.94-14.56
			c-3.3,1.39-7.02,1.67-10.58,0.69c-5.66-1.55-10.03-6.04-11.44-11.74c-0.47-1.93-0.58-3.88-0.35-5.79
			c1.83,5.36,6.07,9.66,11.55,11.35c5.39,1.67,11.24,0.6,15.78-2.7c3.72,5.05,9.57,8.21,15.96,8.48c6.42,0.27,12.54-2.41,16.68-7.16
			c2.57,4.54,7.31,7.57,12.68,7.89c4.71,0.27,9.18-1.59,12.3-4.89c4.47,6.62,11.58,11.17,19.68,12.34
			c9.05,1.31,18.11-1.77,24.46-8.14c3.28,3.58,7.66,6.05,12.54,6.98c5.3,1.01,10.74,0.1,15.38-2.49c3.77,2.58,8.37,3.73,12.97,3.17
			c4.1-0.49,7.88-2.3,10.81-5.1c3.24,4.24,8.56,6.34,13.51,5.21c5.13-1.16,9.18-5.62,10.1-11.22
			C225.36,224.85,224.52,230.23,221.24,234.19z"/>
		<path style="fill:#F9FBFC;" d="M223.54,220.12c-0.92,5.6-4.97,10.06-10.1,11.22c-4.95,1.13-10.27-0.97-13.51-5.21
			c-2.93,2.8-6.71,4.61-10.81,5.1c-4.6,0.56-9.2-0.59-12.97-3.17c-4.64,2.59-10.08,3.5-15.38,2.49c-4.88-0.93-9.26-3.4-12.54-6.98
			c-6.35,6.37-15.41,9.45-24.46,8.14c-8.1-1.17-15.21-5.72-19.68-12.34c-3.12,3.3-7.59,5.16-12.3,4.89
			c-5.37-0.32-10.11-3.35-12.68-7.89c-4.14,4.75-10.26,7.43-16.68,7.16c-6.39-0.27-12.24-3.43-15.96-8.48
			c-4.54,3.3-10.39,4.37-15.78,2.7c-5.48-1.69-9.72-5.99-11.55-11.35c0.44-3.74,2.18-7.26,5.03-9.91c3.8-3.54,9.04-5.02,14.07-4.07
			c0.19-2.01,0.94-3.93,2.17-5.56c1.78-2.35,4.43-3.89,7.36-4.26c2.65-0.34,5.31,0.29,7.51,1.78c2.26-3.97,6.28-6.78,11-7.39
			c3.1-0.4,6.14,0.18,8.77,1.55c5.08-14.01,19.01-23.17,34.23-21.91c14.32,1.19,25.98,11.29,29.56,24.69
			c5.69-0.81,11.56,0.83,16.06,4.69c4.03,3.46,6.46,8.29,6.97,13.39c4.98-3.11,11.15-4.02,16.98-2.25
			c5.26,1.59,9.55,5.16,12.11,9.78c3.91-3.17,9.18-4.41,14.26-3.07c4.51,1.19,8.15,4.22,10.2,8.16c3.2,1.22,5.92,3.6,7.54,6.78
			C223.18,219.23,223.37,219.67,223.54,220.12z"/>
		<path style="fill:#DCE8EF;" d="M142.602,219.944c1.023,1.323,2.116,2.239,3.297,2.842c1.176,0.602,2.406,0.878,3.637,0.866
			c1.23-0.019,2.453-0.322,3.614-0.949c1.165-0.629,2.239-1.566,3.236-2.91c0.226,1.673-0.491,3.479-1.78,4.766
			c-1.285,1.299-3.153,2.082-5.037,2.092c-1.884,0.028-3.766-0.713-5.079-1.984C143.173,223.407,142.417,221.621,142.602,219.944z"
			/>
		<path style="fill:#DCE8EF;" d="M59.296,210.571c-0.815,2.29-2.572,4.226-4.727,5.537c-2.163,1.312-4.755,1.989-7.33,1.922
			c-2.576-0.057-5.132-0.866-7.226-2.285c-2.087-1.418-3.745-3.442-4.438-5.774c2.027,1.316,3.927,2.31,5.883,2.98
			c1.946,0.674,3.909,1.025,5.882,1.081c1.973,0.05,3.954-0.202,5.932-0.777C55.261,212.685,57.209,211.786,59.296,210.571z"/>
		<path style="fill:#DCE8EF;" d="M87.392,209.462c2.543,3.128,5.267,5.509,8.29,7.158c2.989,1.677,6.222,2.576,9.484,2.813
			c3.264,0.192,6.583-0.287,9.771-1.541c3.202-1.248,6.227-3.236,9.161-6.002c-0.729,3.998-3.344,7.681-6.885,10.135
			c-3.543,2.473-8.039,3.688-12.444,3.394c-4.401-0.302-8.702-2.084-11.879-5.015C89.698,217.516,87.6,213.513,87.392,209.462z"/>
		<path style="fill:#DCE8EF;" d="M168.451,220.958c1.187,4.503,4.458,6.736,7.725,6.848c3.268,0.105,6.671-1.897,8.174-6.306
			c0.951,2.165,0.46,5.003-1.193,7.058c-1.624,2.089-4.371,3.367-7.117,3.244c-2.747-0.067-5.396-1.535-6.876-3.724
			C167.655,225.914,167.365,223.053,168.451,220.958z"/>
	</g>
</g>
</svg>
